<svg id="Layer_1" data-name="Layer 1" xmlns="http://www.w3.org/2000/svg" viewBox="0 0 512 384"><defs><style>.cls-1,.cls-3{fill:#212121;}.cls-2,.cls-9{fill:none;}.cls-3,.cls-5,.cls-7,.cls-8,.cls-9{stroke:#000;}.cls-3,.cls-7,.cls-8,.cls-9{stroke-miterlimit:10;}.cls-3,.cls-4,.cls-5,.cls-6,.cls-7,.cls-8,.cls-9{stroke-width:0.5px;}.cls-4{fill:#d81e1e;}.cls-4,.cls-6{stroke:#020202;}.cls-4,.cls-5,.cls-6{stroke-linejoin:round;}.cls-5,.cls-6,.cls-7{fill:#aa1b1b;}.cls-8{fill:#6d6d6d;}</style></defs><title>Artboard 1</title><rect class="cls-1" x="295.71" y="350.88" width="50.06" height="3.98"/><rect class="cls-2" x="255.98" y="256.41" width="128" height="128" transform="translate(640.39 0.43) rotate(90)"/><path class="cls-3" d="M282.86,369h4.54a8.21,8.21,0,0,0,8.18-8.19v-78a8.21,8.21,0,0,0-8.18-8.19h-4.54a8.21,8.21,0,0,0-8.19,8.19v78A8.21,8.21,0,0,0,282.86,369Z"/><path class="cls-3" d="M352.88,274.28h4.54a8.19,8.19,0,0,1,8.19,8.19v78a8.19,8.19,0,0,1-8.19,8.19h-4.54a8.18,8.18,0,0,1-8.18-8.18v-78A8.19,8.19,0,0,1,352.88,274.28Z"/><rect class="cls-4" x="292.64" y="300.8" width="54.58" height="39.24" transform="translate(640.35 0.49) rotate(90)"/><polygon class="cls-5" points="344.98 287.93 344.98 352.91 339.55 347.71 339.59 293.13 344.98 287.93"/><polygon class="cls-5" points="294.98 352.88 294.98 287.91 300.41 293.1 300.37 347.68 294.98 352.88"/><polygon class="cls-5" points="344.98 352.91 294.98 352.91 300.37 347.68 339.55 347.71 344.98 352.91"/><polygon class="cls-6" points="294.98 287.91 344.98 287.91 339.59 293.13 300.41 293.1 294.98 287.91"/><rect class="cls-1" x="295.93" y="222.87" width="50.06" height="3.98"/><rect class="cls-2" x="256.2" y="128.4" width="128" height="128" transform="translate(512.59 -127.8) rotate(90)"/><rect class="cls-3" x="274.89" y="146.63" width="20.91" height="94.37" rx="8.19" ry="8.19"/><path class="cls-3" d="M353.09,146.27h4.54a8.18,8.18,0,0,1,8.18,8.18v78a8.19,8.19,0,0,1-8.19,8.19h-4.54a8.19,8.19,0,0,1-8.19-8.19v-78a8.19,8.19,0,0,1,8.19-8.19Z"/><rect class="cls-4" x="292.85" y="172.79" width="54.58" height="39.24" transform="translate(512.56 -127.73) rotate(90)"/><polygon class="cls-5" points="345.19 159.93 345.19 224.9 339.76 219.7 339.81 165.12 345.19 159.93"/><polygon class="cls-5" points="295.19 224.87 295.19 159.9 300.63 165.09 300.59 219.67 295.19 224.87"/><polygon class="cls-5" points="345.19 224.9 295.19 224.9 300.59 219.67 339.76 219.7 345.19 224.9"/><polygon class="cls-6" points="295.19 159.9 345.19 159.9 339.81 165.12 300.63 165.09 295.19 159.9"/><rect class="cls-1" x="295.71" y="94.88" width="50.06" height="3.98"/><path class="cls-1" d="M165.32,298.92h4.54a8.18,8.18,0,0,1,8.18,8.18v78.26a8.18,8.18,0,0,1-8.18,8.18h-4.54a8.19,8.19,0,0,1-8.19-8.19V307.11a8.19,8.19,0,0,1,8.19-8.19Z" transform="translate(-195.74 219.91) rotate(-45)"/><rect class="cls-1" x="189.5" y="341.28" width="50.06" height="3.98" transform="translate(-179.89 252.24) rotate(-45)"/><rect class="cls-1" x="206.25" y="248.98" width="20.91" height="94.62" rx="8.19" ry="8.19" transform="translate(-146.04 240.01) rotate(-45)"/><path class="cls-7" d="M202,376.48l-65.76-65.76a8.21,8.21,0,0,1,10.91.6l54.26,54.26A8.21,8.21,0,0,1,202,376.48Z"/><path class="cls-7" d="M181.94,264.57l65.76,65.76a8.21,8.21,0,0,1-10.91-.59l-54.26-54.26A8.22,8.22,0,0,1,181.94,264.57Z"/><rect class="cls-4" x="164.73" y="301.13" width="54.58" height="39.24" transform="translate(283.05 -41.84) rotate(45)"/><polygon class="cls-5" points="186.77 280.06 232.71 326.01 225.19 326.17 186.63 287.55 186.77 280.06"/><polygon class="cls-5" points="197.33 361.34 151.39 315.4 158.91 315.23 197.47 353.86 197.33 361.34"/><polygon class="cls-5" points="232.71 326.01 197.35 361.36 197.47 353.86 225.19 326.17 232.71 326.01"/><polygon class="cls-6" points="151.39 315.4 186.75 280.04 186.63 287.55 158.91 315.23 151.39 315.4"/><rect class="cls-2" x="128.31" y="256.88" width="128.1" height="128.1"/><rect class="cls-1" x="157.01" y="170.98" width="20.91" height="94.62" rx="8.19" ry="8.19" transform="translate(-105.31 182.36) rotate(-45)"/><rect class="cls-1" x="189.38" y="213.34" width="50.06" height="3.98" transform="translate(-89.46 214.68) rotate(-45)"/><rect class="cls-1" x="206.13" y="121.04" width="20.91" height="94.62" rx="8.19" ry="8.19" transform="translate(-55.6 202.46) rotate(-45)"/><path class="cls-7" d="M181.82,136.53l65.76,65.76a8.21,8.21,0,0,1-10.91-.6l-54.26-54.26A8.21,8.21,0,0,1,181.82,136.53Z"/><path class="cls-7" d="M201.89,248.44l-65.77-65.77a8.21,8.21,0,0,1,10.91.6l54.26,54.26A8.21,8.21,0,0,1,201.89,248.44Z"/><rect class="cls-4" x="164.61" y="173.09" width="54.58" height="39.24" transform="translate(192.47 -79.25) rotate(45)"/><polygon class="cls-5" points="186.65 152.02 232.59 197.97 225.07 198.13 186.51 159.51 186.65 152.02"/><polygon class="cls-5" points="197.21 233.3 151.27 187.36 158.78 187.19 197.35 225.81 197.21 233.3"/><polygon class="cls-5" points="232.59 197.97 197.23 233.32 197.35 225.81 225.07 198.13 232.59 197.97"/><polygon class="cls-6" points="151.27 187.36 186.63 152 186.51 159.51 158.78 187.19 151.27 187.36"/><rect class="cls-2" x="128.19" y="128.84" width="128.1" height="128.1"/><rect class="cls-1" x="157.25" y="42.94" width="20.91" height="94.62" rx="8.19" ry="8.19" transform="translate(-14.7 145.02) rotate(-45)"/><rect class="cls-1" x="189.62" y="85.3" width="50.06" height="3.98" transform="translate(1.14 177.35) rotate(-45)"/><rect class="cls-2" x="0.43" y="0.3" width="128" height="128"/><rect class="cls-1" x="17.97" y="89.8" width="92.95" height="20.91" rx="8.19" ry="8.19"/><rect class="cls-1" x="17.62" y="20.28" width="92.95" height="20.91" rx="8.19" ry="8.19"/><rect class="cls-8" x="17.59" y="19.32" width="93.11" height="19.59" rx="8.19" ry="8.19"/><path class="cls-9" d="M106.77,37.7l-2.09-3.39V26.75l2.7-2.16s0-1.88.08-3.44"/><path class="cls-9" d="M96.91,19.18c.1,5.4-.1,5.4-.1,5.4l-2.7,2.16v7.56l2.83,4.59"/><path class="cls-9" d="M86.33,19.18c.1,5.4-.1,5.4-.1,5.4l-2.7,2.16v7.56l2.83,4.59"/><path class="cls-9" d="M75.76,19.18c.1,5.4-.1,5.4-.1,5.4L73,26.75v7.56l2.83,4.59"/><path class="cls-9" d="M65.18,19.18c.1,5.4-.1,5.4-.1,5.4l-2.7,2.16v7.56l2.83,4.59"/><path class="cls-9" d="M54.6,19.18c.1,5.4-.1,5.4-.1,5.4l-2.7,2.16v7.56l2.83,4.59"/><path class="cls-9" d="M44.24,19.18c.1,5.4-.1,5.4-.1,5.4l-2.7,2.16v7.56l2.83,4.59"/><path class="cls-9" d="M33.66,19.18c.1,5.4-.1,5.4-.1,5.4l-2.7,2.16v7.56l2.83,4.59"/><path class="cls-9" d="M23.71,19.63c.08,5-.11,5-.11,5l-2.7,2.16v7.56l2.58,4.18"/><rect class="cls-8" x="17.89" y="89.4" width="93.11" height="19.59" rx="8.19" ry="8.19"/><path class="cls-9" d="M107.81,107.07c0-3.45-.13-3.45-.13-3.45l-2.7-2.16V93.9l2.08-3.38"/><path class="cls-9" d="M97.2,109c.1-5.4-.1-5.4-.1-5.4l-2.7-2.16V93.9l2.83-4.59"/><path class="cls-9" d="M86.63,109c.1-5.4-.1-5.4-.1-5.4l-2.7-2.16V93.9l2.83-4.59"/><path class="cls-9" d="M76.05,109c.1-5.4-.1-5.4-.1-5.4l-2.7-2.16V93.9l2.83-4.59"/><path class="cls-9" d="M65.48,109c.1-5.4-.1-5.4-.1-5.4l-2.7-2.16V93.9l2.83-4.59"/><path class="cls-9" d="M54.9,109c.1-5.4-.1-5.4-.1-5.4l-2.7-2.16V93.9l2.83-4.59"/><path class="cls-9" d="M44.53,109c.1-5.4-.1-5.4-.1-5.4l-2.7-2.16V93.9l2.83-4.59"/><path class="cls-9" d="M34,109c.1-5.4-.1-5.4-.1-5.4l-2.7-2.16V93.9L34,89.3"/><path class="cls-9" d="M24,108.62c.09-5-.11-5-.11-5l-2.7-2.16V93.9l2.64-4.28"/><path class="cls-7" d="M110.91,96.7h-93A8.21,8.21,0,0,1,26,89.41h76.73A8.21,8.21,0,0,1,110.91,96.7Z"/><path class="cls-7" d="M17.59,31.76h93a8.21,8.21,0,0,1-8.14,7.29H25.72A8.21,8.21,0,0,1,17.59,31.76Z"/><rect class="cls-4" x="37.15" y="44.73" width="54.58" height="39.24"/><polygon class="cls-5" points="31.95 39.3 96.92 39.3 91.73 44.73 37.15 44.69 31.95 39.3"/><polygon class="cls-5" points="96.9 89.3 31.93 89.3 37.12 83.87 91.7 83.91 96.9 89.3"/><polygon class="cls-5" points="96.92 39.3 96.92 89.3 91.7 83.91 91.73 44.73 96.92 39.3"/><polygon class="cls-6" points="31.93 89.3 31.93 39.3 37.15 44.69 37.12 83.87 31.93 89.3"/><rect class="cls-2" x="0.43" y="128.3" width="128" height="128"/><path class="cls-1" d="M26.15,217.8h76.57a8.18,8.18,0,0,1,8.18,8.18v4.54a8.19,8.19,0,0,1-8.19,8.19H26.15A8.19,8.19,0,0,1,18,230.53V226A8.19,8.19,0,0,1,26.15,217.8Z"/><rect class="cls-8" x="17.78" y="217.44" width="93.11" height="19.59" rx="8.19" ry="8.19"/><path class="cls-9" d="M100.84,237.16c.1-5.4-.1-5.4-.1-5.4L98,229.59V222l2.83-4.59"/><path class="cls-9" d="M90.26,237.16c.1-5.4-.1-5.4-.1-5.4l-2.7-2.16V222l2.83-4.59"/><path class="cls-9" d="M79.68,237.16c.1-5.4-.1-5.4-.1-5.4l-2.7-2.16V222l2.83-4.59"/><path class="cls-9" d="M69.11,237.16c.1-5.4-.1-5.4-.1-5.4l-2.7-2.16V222l2.83-4.59"/><path class="cls-9" d="M58.53,237.16c.1-5.4-.1-5.4-.1-5.4l-2.7-2.16V222l2.83-4.59"/><path class="cls-9" d="M48.17,237.16c.1-5.4-.1-5.4-.1-5.4l-2.7-2.16V222l2.83-4.59"/><path class="cls-9" d="M37.59,237.16c.1-5.4-.1-5.4-.1-5.4l-2.7-2.16V222l2.83-4.59"/><path class="cls-9" d="M27.64,237.16c.1-5.4-.1-5.4-.1-5.4l-2.7-2.16V222l2.83-4.59"/><polyline class="cls-9" points="110.32 230.95 108.61 229.51 108.61 222 109.19 221.07"/><rect class="cls-1" x="17.62" y="148.28" width="92.95" height="20.91" rx="8.19" ry="8.19"/><rect class="cls-8" x="17.5" y="147.2" width="93.11" height="19.59" rx="8.19" ry="8.19"/><path class="cls-9" d="M100.55,147.07c.1,5.4-.1,5.4-.1,5.4l-2.7,2.16v7.56l2.83,4.59"/><path class="cls-9" d="M90,147.07c.1,5.4-.1,5.4-.1,5.4l-2.7,2.16v7.56L90,166.79"/><path class="cls-9" d="M79.4,147.07c.1,5.4-.1,5.4-.1,5.4l-2.7,2.16v7.56l2.83,4.59"/><path class="cls-9" d="M68.82,147.07c.1,5.4-.1,5.4-.1,5.4L66,154.63v7.56l2.83,4.59"/><path class="cls-9" d="M58.24,147.07c.1,5.4-.1,5.4-.1,5.4l-2.7,2.16v7.56l2.83,4.59"/><path class="cls-9" d="M47.88,147.07c.1,5.4-.1,5.4-.1,5.4l-2.7,2.16v7.56l2.83,4.59"/><path class="cls-9" d="M37.3,147.07c.1,5.4-.1,5.4-.1,5.4l-2.7,2.16v7.56l2.83,4.59"/><path class="cls-9" d="M27.35,147.07c.1,5.4-.1,5.4-.1,5.4l-2.7,2.16v7.56l2.83,4.59"/><polyline class="cls-9" points="110.03 153.28 108.32 154.72 108.32 162.23 108.9 163.16"/><path class="cls-7" d="M17.59,159.76h93a8.21,8.21,0,0,1-8.14,7.29H25.72A8.21,8.21,0,0,1,17.59,159.76Z"/><path class="cls-7" d="M110.91,224.7h-93A8.21,8.21,0,0,1,26,217.41h76.73A8.21,8.21,0,0,1,110.91,224.7Z"/><rect class="cls-4" x="37.15" y="172.73" width="54.58" height="39.24"/><polygon class="cls-5" points="31.95 167.3 96.92 167.3 91.73 172.73 37.15 172.69 31.95 167.3"/><polygon class="cls-5" points="96.9 217.3 31.93 217.3 37.12 211.87 91.7 211.91 96.9 217.3"/><polygon class="cls-5" points="96.92 167.3 96.92 217.3 91.7 211.91 91.73 172.73 96.92 167.3"/><polygon class="cls-6" points="31.93 217.3 31.93 167.3 37.15 172.69 37.12 211.87 31.93 217.3"/><rect class="cls-2" x="0.43" y="256.3" width="128" height="128"/><rect class="cls-1" x="17.96" y="345.8" width="92.95" height="20.91" rx="8.19" ry="8.19"/><rect class="cls-8" x="17.7" y="345.4" width="93.11" height="19.59" rx="8.19" ry="8.19"/><path class="cls-9" d="M104.49,364.77c.09-5-.11-5-.11-5l-2.7-2.16V350l2.71-4.4"/><path class="cls-9" d="M93.91,365.13c.1-5.4-.1-5.4-.1-5.4l-2.7-2.16V350l2.83-4.59"/><path class="cls-9" d="M83.33,365.13c.1-5.4-.1-5.4-.1-5.4l-2.7-2.16V350l2.83-4.59"/><path class="cls-9" d="M72.75,365.13c.1-5.4-.1-5.4-.1-5.4L70,357.56V350l2.83-4.59"/><path class="cls-9" d="M62.18,365.13c.1-5.4-.1-5.4-.1-5.4l-2.7-2.16V350l2.83-4.59"/><path class="cls-9" d="M51.81,365.13c.1-5.4-.1-5.4-.1-5.4L49,357.56V350l2.83-4.59"/><path class="cls-9" d="M41.23,365.13c.1-5.4-.1-5.4-.1-5.4l-2.7-2.16V350l2.83-4.59"/><path class="cls-9" d="M31.28,365.13c.1-5.4-.1-5.4-.1-5.4l-2.7-2.16V350l2.83-4.59"/><path class="cls-9" d="M22,364c.06-4.28-.12-4.28-.12-4.28l-2.7-2.16V350l1.47-2.39.2-.32"/><path class="cls-1" d="M25.81,276.28h76.57a8.18,8.18,0,0,1,8.18,8.18V289a8.19,8.19,0,0,1-8.19,8.19H25.81A8.19,8.19,0,0,1,17.62,289v-4.54A8.19,8.19,0,0,1,25.81,276.28Z"/><rect class="cls-8" x="17.7" y="275.51" width="93.11" height="19.59" rx="8.19" ry="8.19"/><path class="cls-9" d="M104.49,275.73c.09,5-.11,5-.11,5l-2.7,2.16v7.56l2.67,4.33"/><path class="cls-9" d="M93.91,275.37c.1,5.4-.1,5.4-.1,5.4l-2.7,2.16v7.56l2.83,4.59"/><path class="cls-9" d="M83.33,275.37c.1,5.4-.1,5.4-.1,5.4l-2.7,2.16v7.56l2.83,4.59"/><path class="cls-9" d="M72.75,275.37c.1,5.4-.1,5.4-.1,5.4L70,282.94v7.56l2.83,4.59"/><path class="cls-9" d="M62.18,275.37c.1,5.4-.1,5.4-.1,5.4l-2.7,2.16v7.56l2.83,4.59"/><path class="cls-9" d="M51.81,275.37c.1,5.4-.1,5.4-.1,5.4L49,282.94v7.56l2.83,4.59"/><path class="cls-9" d="M41.23,275.37c.1,5.4-.1,5.4-.1,5.4l-2.7,2.16v7.56l2.83,4.59"/><path class="cls-9" d="M31.28,275.37c.1,5.4-.1,5.4-.1,5.4l-2.7,2.16v7.56l2.83,4.59"/><path class="cls-9" d="M22,276.5c.06,4.28-.12,4.28-.12,4.28l-2.7,2.16v7.56l1.67,2.71"/><path class="cls-7" d="M17.59,287.76h93a8.21,8.21,0,0,1-8.13,7.29H25.72A8.21,8.21,0,0,1,17.59,287.76Z"/><path class="cls-7" d="M110.91,352.7h-93A8.21,8.21,0,0,1,26,345.41h76.73A8.21,8.21,0,0,1,110.91,352.7Z"/><rect class="cls-4" x="37.15" y="300.73" width="54.58" height="39.24"/><polygon class="cls-5" points="31.95 295.3 96.92 295.3 91.73 300.73 37.15 300.69 31.95 295.3"/><polygon class="cls-5" points="96.9 345.3 31.93 345.3 37.12 339.87 91.7 339.91 96.9 345.3"/><polygon class="cls-5" points="96.92 295.3 96.92 345.3 91.7 339.91 91.73 300.73 96.92 295.3"/><polygon class="cls-6" points="31.93 345.3 31.93 295.3 37.15 300.69 37.12 339.87 31.93 345.3"/><rect class="cls-2" x="128.24" y="128.35" width="128" height="128" transform="translate(192.32 -79.59) rotate(45)"/><rect class="cls-8" x="157.69" y="170.44" width="19.59" height="93.11" rx="8.19" ry="8.19" transform="translate(-104.38 181.98) rotate(-45)"/><path class="cls-9" d="M186.27,249.82c3.89-3.75,3.75-3.89,3.75-3.89l-.38-3.43,5.35-5.35,5.25-1.25"/><path class="cls-9" d="M178.79,242.34c3.89-3.75,3.75-3.89,3.75-3.89l-.38-3.43,5.35-5.35,5.25-1.25"/><path class="cls-9" d="M171.31,234.86c3.89-3.75,3.75-3.89,3.75-3.89l-.38-3.43,5.35-5.35,5.25-1.25"/><path class="cls-9" d="M163.83,227.38c3.89-3.75,3.75-3.89,3.75-3.89l-.38-3.43,5.35-5.35,5.25-1.25"/><path class="cls-9" d="M156.35,219.91c3.89-3.75,3.75-3.89,3.75-3.89l-.38-3.43,5.35-5.35,5.25-1.25"/><path class="cls-9" d="M149,212.57c3.89-3.75,3.75-3.89,3.75-3.89l-.38-3.43,5.35-5.35,5.25-1.25"/><path class="cls-9" d="M141.54,205.1c3.89-3.75,3.75-3.89,3.75-3.89l-.38-3.43,5.35-5.35,5.25-1.25"/><path class="cls-9" d="M134.51,198.06c3.89-3.75,3.75-3.89,3.75-3.89l-.38-3.43,5.35-5.35,5.25-1.25"/><polyline class="cls-9" points="197.37 252.13 197.17 249.91 202.49 244.6 203.55 244.35"/><rect class="cls-8" x="207.14" y="120.57" width="19.59" height="93.11" rx="8.19" ry="8.19" transform="translate(-54.63 202.35) rotate(-45)"/><path class="cls-9" d="M249.77,185.91c-3.75,3.89-3.89,3.75-3.89,3.75l-3.43-.38-5.35,5.35-1.25,5.25"/><path class="cls-9" d="M242.29,178.43c-3.75,3.89-3.89,3.75-3.89,3.75L235,181.8l-5.35,5.35-1.25,5.25"/><path class="cls-9" d="M234.81,171c-3.75,3.89-3.89,3.75-3.89,3.75l-3.43-.38-5.35,5.35-1.25,5.25"/><path class="cls-9" d="M227.33,163.48c-3.75,3.89-3.89,3.75-3.89,3.75l-3.43-.38-5.35,5.35-1.25,5.25"/><path class="cls-9" d="M219.85,156c-3.75,3.89-3.89,3.75-3.89,3.75l-3.43-.38-5.35,5.35L205.93,170"/><path class="cls-9" d="M212.52,148.67c-3.75,3.89-3.89,3.75-3.89,3.75l-3.43-.38-5.35,5.35-1.25,5.25"/><path class="cls-9" d="M205,141.19c-3.75,3.89-3.89,3.75-3.89,3.75l-3.43-.38-5.35,5.35-1.25,5.25"/><path class="cls-9" d="M198,134.15c-3.75,3.89-3.89,3.75-3.89,3.75l-3.43-.38-5.35,5.35-1.25,5.25"/><polyline class="cls-9" points="252.08 197.01 249.86 196.82 244.54 202.13 244.3 203.2"/><rect class="cls-2" x="128.24" y="256.35" width="128" height="128" transform="translate(282.83 -42.1) rotate(45)"/><rect class="cls-8" x="157.65" y="298.35" width="19.59" height="93.11" rx="8.19" ry="8.19" transform="translate(-194.84 219.42) rotate(-45)"/><path class="cls-9" d="M189.13,380.12c3.63-3.51,3.49-3.65,3.49-3.65l-.38-3.43,5.35-5.35,5-1.19"/><path class="cls-9" d="M181.39,372.89c3.89-3.75,3.75-3.89,3.75-3.89l-.38-3.43,5.35-5.35,5.25-1.25"/><path class="cls-9" d="M173.91,365.42c3.89-3.75,3.75-3.89,3.75-3.89l-.38-3.43,5.35-5.35,5.25-1.25"/><path class="cls-9" d="M166.43,357.94c3.89-3.75,3.75-3.89,3.75-3.89l-.38-3.43,5.35-5.35L180.4,344"/><path class="cls-9" d="M159,350.46c3.89-3.75,3.75-3.89,3.75-3.89l-.38-3.43,5.35-5.35,5.25-1.25"/><path class="cls-9" d="M151.62,343.13c3.89-3.75,3.75-3.89,3.75-3.89L155,335.8l5.35-5.35,5.25-1.25"/><path class="cls-9" d="M144.15,335.65c3.89-3.75,3.75-3.89,3.75-3.89l-.38-3.43,5.35-5.35,5.25-1.25"/><path class="cls-9" d="M137.11,328.61c3.89-3.75,3.75-3.89,3.75-3.89l-.38-3.43,5.35-5.35,5.25-1.25"/><path class="cls-9" d="M131.31,321.23c3.07-3,2.94-3.12,2.94-3.12l-.38-3.43,5.35-5.35,2.73-.65.36-.09"/><rect class="cls-8" x="207.07" y="248.93" width="19.59" height="93.11" rx="8.19" ry="8.19" transform="translate(-145.42 239.89) rotate(-45)"/><path class="cls-9" d="M252.09,317.16c-3.51,3.63-3.65,3.49-3.65,3.49l-3.43-.38-5.35,5.35-1.18,5"/><path class="cls-9" d="M244.85,309.43c-3.75,3.89-3.89,3.75-3.89,3.75l-3.43-.38-5.35,5.35-1.25,5.25"/><path class="cls-9" d="M237.38,302c-3.75,3.89-3.89,3.75-3.89,3.75l-3.43-.38-5.35,5.35-1.25,5.25"/><path class="cls-9" d="M229.9,294.47c-3.75,3.89-3.89,3.75-3.89,3.75l-3.43-.38-5.35,5.35L216,308.44"/><path class="cls-9" d="M222.42,287c-3.75,3.89-3.89,3.75-3.89,3.75l-3.43-.38-5.35,5.35L208.5,301"/><path class="cls-9" d="M215.09,279.66c-3.75,3.89-3.89,3.75-3.89,3.75l-3.43-.38-5.35,5.35-1.25,5.25"/><path class="cls-9" d="M207.61,272.19c-3.75,3.89-3.89,3.75-3.89,3.75l-3.43-.38-5.35,5.35-1.25,5.25"/><path class="cls-9" d="M200.57,265.15c-3.75,3.89-3.89,3.75-3.89,3.75l-3.43-.38-5.35,5.35-1.25,5.25"/><path class="cls-9" d="M193.19,259.36c-3,3.07-3.11,2.94-3.11,2.94l-3.43-.38-5.35,5.35-.74,3.1"/><rect class="cls-2" x="255.98" y="0.41" width="128" height="128" transform="translate(384.39 -255.57) rotate(90)"/><rect class="cls-3" x="274.67" y="18.64" width="20.91" height="94.37" rx="8.19" ry="8.19"/><rect class="cls-3" x="344.69" y="18.28" width="20.91" height="94.37" rx="8.19" ry="8.19"/><rect class="cls-8" x="345.38" y="17.57" width="19.59" height="93.11" rx="8.19" ry="8.19"/><path class="cls-9" d="M346.59,106.75l3.39-2.09h7.56l2.16,2.7,3.44.08"/><path class="cls-9" d="M365.1,96.89c-5.4.1-5.4-.1-5.4-.1l-2.16-2.7H350l-4.59,2.83"/><path class="cls-9" d="M365.1,86.31c-5.4.1-5.4-.1-5.4-.1l-2.16-2.7H350l-4.59,2.83"/><path class="cls-9" d="M365.1,75.74c-5.4.1-5.4-.1-5.4-.1l-2.16-2.7H350l-4.59,2.83"/><path class="cls-9" d="M365.1,65.16c-5.4.1-5.4-.1-5.4-.1l-2.16-2.7H350l-4.59,2.83"/><path class="cls-9" d="M365.1,54.59c-5.4.1-5.4-.1-5.4-.1l-2.16-2.7H350l-4.59,2.83"/><path class="cls-9" d="M365.1,44.22c-5.4.1-5.4-.1-5.4-.1l-2.16-2.7H350l-4.59,2.83"/><path class="cls-9" d="M365.1,33.64c-5.4.1-5.4-.1-5.4-.1l-2.16-2.7H350l-4.59,2.83"/><path class="cls-9" d="M364.65,23.7c-5,.08-5-.11-5-.11l-2.16-2.7H350l-4.18,2.58"/><rect class="cls-8" x="275.29" y="17.87" width="19.59" height="93.11" rx="8.19" ry="8.19"/><path class="cls-9" d="M277.21,107.79c3.45,0,3.45-.13,3.45-.13l2.16-2.7h7.56l3.38,2.08"/><path class="cls-9" d="M275.26,97.18c5.4.1,5.4-.1,5.4-.1l2.16-2.7h7.56L295,97.21"/><path class="cls-9" d="M275.26,86.61c5.4.1,5.4-.1,5.4-.1l2.16-2.7h7.56L295,86.64"/><path class="cls-9" d="M275.26,76c5.4.1,5.4-.1,5.4-.1l2.16-2.7h7.56L295,76.06"/><path class="cls-9" d="M275.26,65.46c5.4.1,5.4-.1,5.4-.1l2.16-2.7h7.56L295,65.49"/><path class="cls-9" d="M275.26,54.88c5.4.1,5.4-.1,5.4-.1l2.16-2.7h7.56L295,54.91"/><path class="cls-9" d="M275.26,44.51c5.4.1,5.4-.1,5.4-.1l2.16-2.7h7.56L295,44.54"/><path class="cls-9" d="M275.26,33.94c5.4.1,5.4-.1,5.4-.1l2.16-2.7h7.56L295,34"/><path class="cls-9" d="M275.66,24c5,.09,5-.11,5-.11l2.16-2.7h7.56l4.28,2.64"/><path class="cls-7" d="M287.58,110.89v-93A8.21,8.21,0,0,1,294.88,26v76.73A8.21,8.21,0,0,1,287.58,110.89Z"/><path class="cls-7" d="M352.52,17.57v93a8.21,8.21,0,0,1-7.29-8.13V25.71A8.21,8.21,0,0,1,352.52,17.57Z"/><rect class="cls-4" x="292.64" y="44.8" width="54.58" height="39.24" transform="translate(384.35 -255.51) rotate(90)"/><polygon class="cls-5" points="344.98 31.93 344.98 96.91 339.55 91.71 339.59 37.13 344.98 31.93"/><polygon class="cls-5" points="294.98 96.88 294.98 31.91 300.41 37.1 300.37 91.68 294.98 96.88"/><polygon class="cls-5" points="344.98 96.91 294.98 96.91 300.37 91.68 339.55 91.71 344.98 96.91"/><polygon class="cls-6" points="294.98 31.91 344.98 31.91 339.59 37.13 300.41 37.1 294.98 31.91"/><rect class="cls-2" x="255.98" y="128.41" width="128" height="128" transform="translate(512.39 -127.57) rotate(90)"/><rect class="cls-8" x="275.26" y="145.77" width="19.59" height="93.11" rx="8.19" ry="8.19"/><path class="cls-9" d="M275.12,228.82c5.4.1,5.4-.1,5.4-.1l2.16-2.7h7.56l4.59,2.83"/><path class="cls-9" d="M275.12,218.24c5.4.1,5.4-.1,5.4-.1l2.16-2.7h7.56l4.59,2.83"/><path class="cls-9" d="M275.12,207.67c5.4.1,5.4-.1,5.4-.1l2.16-2.7h7.56l4.59,2.83"/><path class="cls-9" d="M275.12,197.09c5.4.1,5.4-.1,5.4-.1l2.16-2.7h7.56l4.59,2.83"/><path class="cls-9" d="M275.12,186.51c5.4.1,5.4-.1,5.4-.1l2.16-2.7h7.56l4.59,2.83"/><path class="cls-9" d="M275.12,176.15c5.4.1,5.4-.1,5.4-.1l2.16-2.7h7.56l4.59,2.83"/><path class="cls-9" d="M275.12,165.57c5.4.1,5.4-.1,5.4-.1l2.16-2.7h7.56l4.59,2.83"/><path class="cls-9" d="M275.12,155.62c5.4.1,5.4-.1,5.4-.1l2.16-2.7h7.56l4.59,2.83"/><polyline class="cls-9" points="281.34 238.31 282.77 236.59 290.28 236.59 291.22 237.17"/><rect class="cls-8" x="345.49" y="145.48" width="19.59" height="93.11" rx="8.19" ry="8.19"/><path class="cls-9" d="M365.21,228.53c-5.4.1-5.4-.1-5.4-.1l-2.16-2.7h-7.56l-4.59,2.83"/><path class="cls-9" d="M365.21,218c-5.4.1-5.4-.1-5.4-.1l-2.16-2.7h-7.56L345.49,218"/><path class="cls-9" d="M365.21,207.38c-5.4.1-5.4-.1-5.4-.1l-2.16-2.7h-7.56l-4.59,2.83"/><path class="cls-9" d="M365.21,196.8c-5.4.1-5.4-.1-5.4-.1l-2.16-2.7h-7.56l-4.59,2.83"/><path class="cls-9" d="M365.21,186.22c-5.4.1-5.4-.1-5.4-.1l-2.16-2.7h-7.56l-4.59,2.83"/><path class="cls-9" d="M365.21,175.86c-5.4.1-5.4-.1-5.4-.1l-2.16-2.7h-7.56l-4.59,2.83"/><path class="cls-9" d="M365.21,165.28c-5.4.1-5.4-.1-5.4-.1l-2.16-2.7h-7.56l-4.59,2.83"/><path class="cls-9" d="M365.21,155.33c-5.4.1-5.4-.1-5.4-.1l-2.16-2.7h-7.56l-4.59,2.83"/><polyline class="cls-9" points="359 238.01 357.57 236.3 350.06 236.3 349.12 236.88"/><rect class="cls-2" x="255.98" y="256.41" width="128" height="128" transform="translate(640.39 0.43) rotate(90)"/><rect class="cls-8" x="275.29" y="273.68" width="19.59" height="93.11" rx="8.19" ry="8.19"/><path class="cls-9" d="M275.52,360.47c5,.09,5-.11,5-.11l2.16-2.7h7.56l4.4,2.71"/><path class="cls-9" d="M275.16,349.89c5.4.1,5.4-.1,5.4-.1l2.16-2.7h7.56l4.59,2.83"/><path class="cls-9" d="M275.16,339.31c5.4.1,5.4-.1,5.4-.1l2.16-2.7h7.56l4.59,2.83"/><path class="cls-9" d="M275.16,328.73c5.4.1,5.4-.1,5.4-.1l2.16-2.7h7.56l4.59,2.83"/><path class="cls-9" d="M275.16,318.16c5.4.1,5.4-.1,5.4-.1l2.16-2.7h7.56l4.59,2.83"/><path class="cls-9" d="M275.16,307.79c5.4.1,5.4-.1,5.4-.1l2.16-2.7h7.56l4.59,2.83"/><path class="cls-9" d="M275.16,297.22c5.4.1,5.4-.1,5.4-.1l2.16-2.7h7.56l4.59,2.83"/><path class="cls-9" d="M275.16,287.26c5.4.1,5.4-.1,5.4-.1l2.16-2.7h7.56l4.59,2.83"/><path class="cls-9" d="M276.28,277.95c4.28.06,4.28-.12,4.28-.12l2.16-2.7h7.56l2.39,1.47.32.2"/><rect class="cls-8" x="345.19" y="273.68" width="19.59" height="93.11" rx="8.19" ry="8.19"/><path class="cls-9" d="M364.55,360.47c-5,.09-5-.11-5-.11l-2.16-2.7h-7.56l-4.33,2.67"/><path class="cls-9" d="M364.91,349.89c-5.4.1-5.4-.1-5.4-.1l-2.16-2.7h-7.56l-4.59,2.83"/><path class="cls-9" d="M364.91,339.31c-5.4.1-5.4-.1-5.4-.1l-2.16-2.7h-7.56l-4.59,2.83"/><path class="cls-9" d="M364.91,328.73c-5.4.1-5.4-.1-5.4-.1l-2.16-2.7h-7.56l-4.59,2.83"/><path class="cls-9" d="M364.91,318.16c-5.4.1-5.4-.1-5.4-.1l-2.16-2.7h-7.56l-4.59,2.83"/><path class="cls-9" d="M364.91,307.79c-5.4.1-5.4-.1-5.4-.1l-2.16-2.7h-7.56l-4.59,2.83"/><path class="cls-9" d="M364.91,297.22c-5.4.1-5.4-.1-5.4-.1l-2.16-2.7h-7.56l-4.59,2.83"/><path class="cls-9" d="M364.91,287.26c-5.4.1-5.4-.1-5.4-.1l-2.16-2.7h-7.56l-4.59,2.83"/><path class="cls-9" d="M363.79,277.95c-4.28.06-4.28-.12-4.28-.12l-2.16-2.7h-7.56l-2.71,1.67"/><rect class="cls-2" x="128.17" y="0.12" width="128" height="128" transform="translate(101.63 -117.1) rotate(45)"/><rect class="cls-8" x="157.62" y="42.21" width="19.59" height="93.11" rx="8.19" ry="8.19" transform="translate(-13.73 144.37) rotate(-45)"/><path class="cls-9" d="M186.2,121.59c3.89-3.75,3.75-3.89,3.75-3.89l-.38-3.43,5.35-5.35,5.25-1.25"/><path class="cls-9" d="M178.72,114.11c3.89-3.75,3.75-3.89,3.75-3.89l-.38-3.43,5.35-5.35,5.25-1.25"/><path class="cls-9" d="M171.24,106.63c3.89-3.75,3.75-3.89,3.75-3.89l-.38-3.43L180,94l5.25-1.25"/><path class="cls-9" d="M163.76,99.15c3.89-3.75,3.75-3.89,3.75-3.89l-.38-3.43,5.35-5.35,5.25-1.25"/><path class="cls-9" d="M156.28,91.68c3.89-3.75,3.75-3.89,3.75-3.89l-.38-3.43L165,79l5.25-1.25"/><path class="cls-9" d="M149,84.34c3.89-3.75,3.75-3.89,3.75-3.89L152.32,77l5.35-5.35,5.25-1.25"/><path class="cls-9" d="M141.47,76.87c3.89-3.75,3.75-3.89,3.75-3.89l-.38-3.43,5.35-5.35,5.25-1.25"/><path class="cls-9" d="M134.44,69.83c3.89-3.75,3.75-3.89,3.75-3.89l-.38-3.43,5.35-5.35,5.25-1.25"/><polyline class="cls-9" points="197.3 123.9 197.1 121.68 202.41 116.37 203.48 116.12"/><rect class="cls-1" x="206.37" y="-7" width="20.91" height="94.62" rx="8.19" ry="8.19" transform="translate(35 165.12) rotate(-45)"/><rect class="cls-8" x="207.08" y="-7.66" width="19.59" height="93.11" rx="8.19" ry="8.19" transform="translate(36.02 164.74) rotate(-45)"/><path class="cls-9" d="M249.7,57.68c-3.75,3.89-3.89,3.75-3.89,3.75L242.37,61,237,66.4l-1.25,5.25"/><path class="cls-9" d="M242.22,50.2c-3.75,3.89-3.89,3.75-3.89,3.75l-3.43-.38-5.35,5.35-1.25,5.25"/><path class="cls-9" d="M234.74,42.72c-3.75,3.89-3.89,3.75-3.89,3.75l-3.43-.38-5.35,5.35-1.25,5.25"/><path class="cls-9" d="M227.26,35.25c-3.75,3.89-3.89,3.75-3.89,3.75l-3.43-.38L214.58,44l-1.25,5.25"/><path class="cls-9" d="M219.78,27.77c-3.75,3.89-3.89,3.75-3.89,3.75l-3.43-.38-5.35,5.35-1.25,5.25"/><path class="cls-9" d="M212.45,20.44c-3.75,3.89-3.89,3.75-3.89,3.75l-3.43-.38-5.35,5.35-1.25,5.25"/><path class="cls-9" d="M205,13c-3.75,3.89-3.89,3.75-3.89,3.75l-3.43-.38-5.35,5.35L191,26.92"/><path class="cls-9" d="M197.93,5.92C194.19,9.81,194,9.67,194,9.67l-3.43-.38-5.35,5.35L184,19.88"/><polyline class="cls-9" points="252.01 68.78 249.79 68.58 244.47 73.9 244.23 74.97"/><path class="cls-7" d="M202.14,119.9,136.37,54.14a8.21,8.21,0,0,1,10.91.6L201.54,109A8.22,8.22,0,0,1,202.14,119.9Z"/><path class="cls-7" d="M182.06,8l65.76,65.76a8.21,8.21,0,0,1-10.91-.6L182.65,18.91A8.21,8.21,0,0,1,182.06,8Z"/><rect class="cls-4" x="164.85" y="44.55" width="54.58" height="39.24" transform="translate(101.65 -117.07) rotate(45)"/><polygon class="cls-5" points="186.88 23.48 232.83 69.43 225.31 69.59 186.75 30.97 186.88 23.48"/><polygon class="cls-5" points="197.45 104.76 151.51 58.82 159.02 58.66 197.59 97.28 197.45 104.76"/><polygon class="cls-5" points="232.83 69.43 197.47 104.78 197.59 97.28 225.31 69.59 232.83 69.43"/><polygon class="cls-6" points="151.51 58.82 186.86 23.46 186.75 30.97 159.02 58.66 151.51 58.82"/><rect class="cls-2" x="128.43" y="0.3" width="128.1" height="128.1"/><path class="cls-7" d="M201.88,248.31l-65.76-65.76a8.21,8.21,0,0,1,10.91.6l54.26,54.26A8.21,8.21,0,0,1,201.88,248.31Z"/><path class="cls-7" d="M181.8,136.4l65.76,65.76a8.21,8.21,0,0,1-10.91-.6L182.4,147.31A8.21,8.21,0,0,1,181.8,136.4Z"/><rect class="cls-2" x="128.27" y="128.61" width="128.1" height="128.1"/><path class="cls-7" d="M202.1,376.38l-65.76-65.76a8.21,8.21,0,0,1,10.91.6l54.26,54.26A8.21,8.21,0,0,1,202.1,376.38Z"/><path class="cls-7" d="M182,264.47l65.76,65.76a8.21,8.21,0,0,1-10.91-.6l-54.26-54.26A8.21,8.21,0,0,1,182,264.47Z"/><rect class="cls-2" x="128.39" y="256.78" width="128.1" height="128.1"/><path class="cls-1" d="M433.47,335.77h78.25a8.19,8.19,0,0,1,8.19,8.19v4.54a8.19,8.19,0,0,1-8.19,8.19H433.47a8.18,8.18,0,0,1-8.18-8.18V344A8.19,8.19,0,0,1,433.47,335.77Z" transform="translate(-106.4 435.58) rotate(-45)"/><rect class="cls-1" x="400.63" y="341.27" width="50.06" height="3.98" transform="translate(483.92 886.97) rotate(-135)"/><path class="cls-1" d="M384.36,285.83h78.25A8.19,8.19,0,0,1,470.8,294v4.54a8.18,8.18,0,0,1-8.18,8.18H384.36a8.19,8.19,0,0,1-8.19-8.19V294a8.19,8.19,0,0,1,8.19-8.19Z" transform="translate(-85.47 386.23) rotate(-45)"/><path class="cls-7" d="M458.25,264.56l-65.77,65.77a8.21,8.21,0,0,0,10.91-.6l54.26-54.26A8.21,8.21,0,0,0,458.25,264.56Z"/><path class="cls-7" d="M438.18,376.47l65.76-65.76a8.21,8.21,0,0,0-10.91.6l-54.26,54.26A8.21,8.21,0,0,0,438.18,376.47Z"/><rect class="cls-4" x="420.88" y="301.12" width="54.58" height="39.24" transform="translate(991.87 230.64) rotate(135)"/><polygon class="cls-5" points="453.42 280.06 407.48 326 415 326.16 453.56 287.54 453.42 280.06"/><polygon class="cls-5" points="442.86 361.33 488.8 315.39 481.28 315.22 442.72 353.85 442.86 361.33"/><polygon class="cls-5" points="407.48 326 442.84 361.35 442.72 353.85 415 326.16 407.48 326"/><polygon class="cls-6" points="488.8 315.39 453.44 280.04 453.56 287.54 481.28 315.22 488.8 315.39"/><rect class="cls-2" x="383.78" y="256.87" width="128.1" height="128.1" transform="translate(895.66 641.85) rotate(-180)"/><rect class="cls-1" x="425.41" y="207.83" width="94.62" height="20.91" rx="8.19" ry="8.19" transform="translate(-15.89 398.2) rotate(-45)"/><rect class="cls-1" x="400.75" y="213.33" width="50.06" height="3.98" transform="translate(574.6 668.65) rotate(-135)"/><rect class="cls-1" x="376.3" y="157.88" width="94.62" height="20.91" rx="8.19" ry="8.19" transform="translate(5.04 348.84) rotate(-45)"/><path class="cls-7" d="M438.3,248.43l65.76-65.76a8.22,8.22,0,0,0-10.91.6l-54.26,54.26A8.22,8.22,0,0,0,438.3,248.43Z"/><path class="cls-7" d="M458.37,136.52l-65.76,65.76a8.21,8.21,0,0,0,10.91-.59l54.26-54.26A8.21,8.21,0,0,0,458.37,136.52Z"/><rect class="cls-4" x="421" y="173.08" width="54.58" height="39.24" transform="translate(901.54 11.97) rotate(135)"/><polygon class="cls-5" points="453.55 152.01 407.6 197.96 415.12 198.12 453.68 159.5 453.55 152.01"/><polygon class="cls-5" points="442.98 233.29 488.92 187.35 481.41 187.18 442.84 225.81 442.98 233.29"/><polygon class="cls-5" points="407.6 197.96 442.96 233.31 442.84 225.81 415.12 198.12 407.6 197.96"/><polygon class="cls-6" points="488.92 187.35 453.56 152 453.68 159.5 481.41 187.18 488.92 187.35"/><rect class="cls-2" x="383.9" y="128.83" width="128.1" height="128.1" transform="translate(895.91 385.77) rotate(-180)"/><rect class="cls-1" x="425.17" y="79.79" width="94.62" height="20.91" rx="8.19" ry="8.19" transform="translate(74.57 360.53) rotate(-45)"/><rect class="cls-1" x="400.51" y="85.29" width="50.06" height="3.98" transform="translate(664.73 449.9) rotate(-135)"/><rect class="cls-2" x="383.95" y="128.35" width="128" height="128" transform="translate(900.71 11.6) rotate(135)"/><rect class="cls-8" x="426.16" y="207.19" width="93.11" height="19.59" rx="8.19" ry="8.19" transform="translate(-14.98 397.81) rotate(-45)"/><path class="cls-9" d="M453.92,249.81c-3.89-3.75-3.75-3.89-3.75-3.89l.38-3.43-5.35-5.35L440,235.89"/><path class="cls-9" d="M461.4,242.33c-3.89-3.75-3.75-3.89-3.75-3.89L458,235l-5.35-5.35-5.25-1.25"/><path class="cls-9" d="M468.88,234.85c-3.89-3.75-3.75-3.89-3.75-3.89l.38-3.43-5.35-5.35-5.25-1.25"/><path class="cls-9" d="M476.36,227.38c-3.89-3.75-3.75-3.89-3.75-3.89L473,220l-5.35-5.35-5.25-1.25"/><path class="cls-9" d="M483.84,219.9c-3.89-3.75-3.75-3.89-3.75-3.89l.38-3.43-5.35-5.35L469.87,206"/><path class="cls-9" d="M491.17,212.57c-3.89-3.75-3.75-3.89-3.75-3.89l.38-3.43-5.35-5.35-5.25-1.25"/><path class="cls-9" d="M498.65,205.09c-3.89-3.75-3.75-3.89-3.75-3.89l.38-3.43-5.35-5.35-5.25-1.25"/><path class="cls-9" d="M505.68,198c-3.89-3.75-3.75-3.89-3.75-3.89l.38-3.43L497,185.37l-5.25-1.25"/><polyline class="cls-9" points="442.82 252.13 443.02 249.9 437.71 244.59 436.64 244.34"/><rect class="cls-8" x="376.7" y="157.32" width="93.11" height="19.59" rx="8.19" ry="8.19" transform="translate(5.8 348.23) rotate(-45)"/><path class="cls-9" d="M390.43,185.9c3.75,3.89,3.89,3.75,3.89,3.75l3.43-.38,5.35,5.35,1.25,5.25"/><path class="cls-9" d="M397.9,178.42c3.75,3.89,3.89,3.75,3.89,3.75l3.43-.38,5.35,5.35,1.25,5.25"/><path class="cls-9" d="M405.38,170.95c3.75,3.89,3.89,3.75,3.89,3.75l3.43-.38,5.35,5.35,1.25,5.25"/><path class="cls-9" d="M412.86,163.47c3.75,3.89,3.89,3.75,3.89,3.75l3.43-.38,5.35,5.35,1.25,5.25"/><path class="cls-9" d="M420.34,156c3.75,3.89,3.89,3.75,3.89,3.75l3.43-.38,5.35,5.35,1.25,5.25"/><path class="cls-9" d="M427.67,148.66c3.75,3.89,3.89,3.75,3.89,3.75L435,152l5.35,5.35,1.25,5.25"/><path class="cls-9" d="M435.15,141.18c3.75,3.89,3.89,3.75,3.89,3.75l3.43-.38,5.35,5.35,1.25,5.25"/><path class="cls-9" d="M442.19,134.14c3.75,3.89,3.89,3.75,3.89,3.75l3.43-.38,5.35,5.35,1.25,5.25"/><polyline class="cls-9" points="388.11 197 390.33 196.81 395.65 202.12 395.89 203.19"/><rect class="cls-2" x="383.95" y="256.35" width="128" height="128" transform="translate(991.22 230.11) rotate(135)"/><rect class="cls-8" x="426.2" y="335.11" width="93.11" height="19.59" rx="8.19" ry="8.19" transform="translate(-105.41 435.3) rotate(-45)"/><path class="cls-9" d="M451.07,380.12c-3.63-3.51-3.49-3.65-3.49-3.65L448,373l-5.35-5.35-5-1.19"/><path class="cls-9" d="M458.8,372.89c-3.89-3.75-3.75-3.89-3.75-3.89l.38-3.43-5.35-5.35L444.84,359"/><path class="cls-9" d="M466.28,365.41c-3.89-3.75-3.75-3.89-3.75-3.89l.38-3.43-5.35-5.35-5.25-1.25"/><path class="cls-9" d="M473.76,357.93C469.86,354.18,470,354,470,354l.38-3.43L465,345.25,459.79,344"/><path class="cls-9" d="M481.24,350.45c-3.89-3.75-3.75-3.89-3.75-3.89l.38-3.43-5.35-5.35-5.25-1.25"/><path class="cls-9" d="M488.57,343.12c-3.89-3.75-3.75-3.89-3.75-3.89l.38-3.43-5.35-5.35-5.25-1.25"/><path class="cls-9" d="M496,335.64c-3.89-3.75-3.75-3.89-3.75-3.89l.38-3.43L487.33,323l-5.25-1.25"/><path class="cls-9" d="M503.08,328.6c-3.89-3.75-3.75-3.89-3.75-3.89l.38-3.43-5.35-5.35-5.25-1.25"/><path class="cls-9" d="M508.88,321.23c-3.07-3-2.94-3.12-2.94-3.12l.38-3.43L501,309.33l-2.73-.65-.36-.09"/><rect class="cls-8" x="376.77" y="285.68" width="93.11" height="19.59" rx="8.19" ry="8.19" transform="translate(-84.94 385.88) rotate(-45)"/><path class="cls-9" d="M388.11,317.15c3.51,3.63,3.65,3.49,3.65,3.49l3.43-.38,5.35,5.35,1.18,5"/><path class="cls-9" d="M395.34,309.42c3.75,3.89,3.89,3.75,3.89,3.75l3.43-.38,5.35,5.35,1.25,5.25"/><path class="cls-9" d="M402.81,301.94c3.75,3.89,3.89,3.75,3.89,3.75l3.43-.38,5.35,5.35,1.25,5.25"/><path class="cls-9" d="M410.29,294.46c3.75,3.89,3.89,3.75,3.89,3.75l3.43-.38,5.35,5.35,1.25,5.25"/><path class="cls-9" d="M417.77,287c3.75,3.89,3.89,3.75,3.89,3.75l3.43-.38,5.35,5.35,1.25,5.25"/><path class="cls-9" d="M425.1,279.65c3.75,3.89,3.89,3.75,3.89,3.75l3.43-.38,5.35,5.35,1.25,5.25"/><path class="cls-9" d="M432.58,272.18c3.75,3.89,3.89,3.75,3.89,3.75l3.43-.38,5.35,5.35,1.25,5.25"/><path class="cls-9" d="M439.62,265.14c3.75,3.89,3.89,3.75,3.89,3.75l3.43-.38,5.35,5.35,1.25,5.25"/><path class="cls-9" d="M447,259.35c3,3.07,3.11,2.94,3.11,2.94l3.43-.38,5.35,5.35.74,3.1"/><rect class="cls-2" x="384.02" y="0.12" width="128" height="128" transform="translate(810.16 -207.35) rotate(135)"/><rect class="cls-8" x="426.23" y="78.96" width="93.11" height="19.59" rx="8.19" ry="8.19" transform="translate(75.72 360.3) rotate(-45)"/><path class="cls-9" d="M454,121.58c-3.89-3.75-3.75-3.89-3.75-3.89l.38-3.43-5.35-5.35L440,107.66"/><path class="cls-9" d="M461.47,114.1c-3.89-3.75-3.75-3.89-3.75-3.89l.38-3.43-5.35-5.35-5.25-1.25"/><path class="cls-9" d="M469,106.62c-3.89-3.75-3.75-3.89-3.75-3.89l.38-3.43-5.35-5.35L455,92.7"/><path class="cls-9" d="M476.43,99.14c-3.89-3.75-3.75-3.89-3.75-3.89l.38-3.43-5.35-5.35-5.25-1.25"/><path class="cls-9" d="M483.91,91.67c-3.89-3.75-3.75-3.89-3.75-3.89l.38-3.43L475.19,79l-5.25-1.25"/><path class="cls-9" d="M491.24,84.34c-3.89-3.75-3.75-3.89-3.75-3.89l.38-3.43-5.35-5.35-5.25-1.25"/><path class="cls-9" d="M498.72,76.86C494.82,73.11,495,73,495,73l.38-3.43L490,64.18l-5.25-1.25"/><path class="cls-9" d="M505.75,69.82c-3.89-3.75-3.75-3.89-3.75-3.89l.38-3.43L497,57.14l-5.25-1.25"/><polyline class="cls-9" points="442.89 123.89 443.09 121.67 437.78 116.36 436.71 116.11"/><rect class="cls-1" x="376.06" y="29.85" width="94.62" height="20.91" rx="8.19" ry="8.19" transform="translate(95.5 311.17) rotate(-45)"/><rect class="cls-8" x="376.77" y="29.09" width="93.11" height="19.59" rx="8.19" ry="8.19" transform="translate(96.49 310.72) rotate(-45)"/><path class="cls-9" d="M390.5,57.67c3.75,3.89,3.89,3.75,3.89,3.75l3.43-.38,5.35,5.35,1.25,5.25"/><path class="cls-9" d="M398,50.19c3.75,3.89,3.89,3.75,3.89,3.75l3.43-.38,5.35,5.35,1.25,5.25"/><path class="cls-9" d="M405.45,42.71c3.75,3.89,3.89,3.75,3.89,3.75l3.43-.38,5.35,5.35,1.25,5.25"/><path class="cls-9" d="M412.93,35.24c3.75,3.89,3.89,3.75,3.89,3.75l3.43-.38L425.61,44l1.25,5.25"/><path class="cls-9" d="M420.41,27.76c3.75,3.89,3.89,3.75,3.89,3.75l3.43-.38,5.35,5.35,1.25,5.25"/><path class="cls-9" d="M427.74,20.43c3.75,3.89,3.89,3.75,3.89,3.75l3.43-.38,5.35,5.35,1.25,5.25"/><path class="cls-9" d="M435.22,12.95c3.75,3.89,3.89,3.75,3.89,3.75l3.43-.38,5.35,5.35,1.25,5.25"/><path class="cls-9" d="M442.26,5.91c3.75,3.89,3.89,3.75,3.89,3.75l3.43-.38,5.35,5.35,1.25,5.25"/><polyline class="cls-9" points="388.18 68.77 390.4 68.58 395.72 73.89 395.96 74.96"/><path class="cls-7" d="M458.13,8,392.37,73.75a8.21,8.21,0,0,0,10.91-.59L457.54,18.9A8.22,8.22,0,0,0,458.13,8Z"/><path class="cls-7" d="M438.06,119.89l65.76-65.76a8.21,8.21,0,0,0-10.91.6L438.65,109A8.21,8.21,0,0,0,438.06,119.89Z"/><rect class="cls-4" x="420.76" y="44.54" width="54.58" height="39.24" transform="translate(810.24 -207.29) rotate(135)"/><polygon class="cls-5" points="453.31 23.48 407.36 69.42 414.88 69.58 453.44 30.96 453.31 23.48"/><polygon class="cls-5" points="442.74 104.75 488.68 58.81 481.17 58.65 442.6 97.27 442.74 104.75"/><polygon class="cls-5" points="407.36 69.42 442.72 104.77 442.6 97.27 414.88 69.58 407.36 69.42"/><polygon class="cls-6" points="488.68 58.81 453.33 23.46 453.44 30.96 481.17 58.65 488.68 58.81"/><rect class="cls-2" x="383.66" y="0.29" width="128.1" height="128.1" transform="translate(895.43 128.69) rotate(-180)"/><path class="cls-7" d="M438.31,248.3l65.76-65.76a8.21,8.21,0,0,0-10.91.6l-54.26,54.26A8.21,8.21,0,0,0,438.31,248.3Z"/><path class="cls-7" d="M458.39,136.39l-65.76,65.76a8.21,8.21,0,0,0,10.91-.59l54.26-54.26A8.21,8.21,0,0,0,458.39,136.39Z"/><rect class="cls-2" x="383.82" y="128.6" width="128.1" height="128.1" transform="translate(895.74 385.3) rotate(-180)"/><path class="cls-7" d="M458.17,264.46,392.4,330.23a8.21,8.21,0,0,0,10.91-.6l54.26-54.26A8.21,8.21,0,0,0,458.17,264.46Z"/><path class="cls-7" d="M438.09,376.37l65.76-65.76a8.21,8.21,0,0,0-10.91.6l-54.26,54.26A8.21,8.21,0,0,0,438.09,376.37Z"/><rect class="cls-2" x="383.7" y="256.77" width="128.1" height="128.1" transform="translate(895.5 641.64) rotate(-180)"/><rect class="cls-2" x="255.98" y="128.39" width="128" height="128" transform="translate(512.37 -127.59) rotate(90)"/><path class="cls-7" d="M287.59,238.88v-93a8.21,8.21,0,0,1,7.29,8.13v76.73A8.21,8.21,0,0,1,287.59,238.88Z"/><path class="cls-7" d="M352.52,145.56v93a8.21,8.21,0,0,1-7.3-8.13V153.69A8.21,8.21,0,0,1,352.52,145.56Z"/><rect class="cls-2" x="256.2" y="256.51" width="128" height="128" transform="translate(640.7 0.31) rotate(90)"/><path class="cls-7" d="M287.8,367V274a8.22,8.22,0,0,1,7.29,8.13v76.73A8.22,8.22,0,0,1,287.8,367Z"/><path class="cls-7" d="M352.74,273.67v93a8.21,8.21,0,0,1-7.29-8.13V281.8A8.21,8.21,0,0,1,352.74,273.67Z"/></svg>